<?xml version="1.0" encoding="UTF-8" standalone="no"?>
<!-- Filename: 6f4d1bb7b9a0a0ca2faad221837757cbf58954984b2de00aa6d5b1871c4a6247.svg -->
<!-- Created with https://svgstud.io -->
<svg
  version="1.1"
  xmlns="http://www.w3.org/2000/svg"
  xmlns:xlink="http://www.w3.org/1999/xlink"
  xmlns:svg="http://www.w3.org/2000/svg"
  xmlns:rdf="http://www.w3.org/1999/02/22-rdf-syntax-ns#"
  xmlns:cc="http://creativecommons.org/ns#"
  xmlns:dc="http://purl.org/dc/elements/1.1/"
  viewBox="0 0 768 768"
  width="768"
  height="768"
  role="img"
  aria-labelledby="titleID descID"
>
  <title id="titleID">The Great Wave off Kanagawa</title>
  <desc id="descID">AI-generated SVG illustration: The Great Wave off Kanagawa, created on https://svgstud.io</desc>

  <rect width="100%" height="100%" fill="none" />

  <metadata id="copyright">
    Created by https://svgstud.io and licensed under CC-BY-SA 4.0 license. Please attribute https://svgstud.io
  </metadata>
  <metadata id="prompt">
    The Great Wave off Kanagawa
  </metadata>
  <metadata id="version">
    7
  </metadata>
  <metadata>
    <rdf:RDF
      xmlns:rdf="http://www.w3.org/1999/02/22-rdf-syntax-ns#"
      xmlns:cc="http://creativecommons.org/ns#"
      xmlns:dc="http://purl.org/dc/elements/1.1/"
    >
      <cc:Work rdf:about="">
        <cc:license rdf:resource="http://creativecommons.org/licenses/by-sa/4.0/" />
        <dc:creator>
          <cc:Agent>
            <dc:title>https://svgstud.io</dc:title>
          </cc:Agent>
        </dc:creator>
      </cc:Work>
      <cc:License rdf:about="http://creativecommons.org/licenses/by-sa/4.0/">
        <cc:permits rdf:resource="http://creativecommons.org/ns#Reproduction" />
        <cc:permits rdf:resource="http://creativecommons.org/ns#Distribution" />
        <cc:requires rdf:resource="http://creativecommons.org/ns#Notice" />
        <cc:requires rdf:resource="http://creativecommons.org/ns#Attribution" />
        <cc:permits rdf:resource="http://creativecommons.org/ns#DerivativeWorks" />
        <cc:requires rdf:resource="http://creativecommons.org/ns#ShareAlike" />
      </cc:License>
    </rdf:RDF>
  </metadata>
  <metadata id="uid">6f4d1bb7b9a0a0ca2faad221837757cbf58954984b2de00aa6d5b1871c4a6247</metadata>

  <path stroke="none" fill="#54546D" fill-rule="evenodd" d="M712.42,767.94C707.97,767.97 704.09,767.75 703.78,767.45C703.48,767.15 684.62,766.51 661.87,766.04C623.59,765.24 618.37,764.91 592.00,761.64C576.33,759.70 553.83,757.17 542.00,756.01C530.17,754.86 514.28,753.26 506.67,752.46C499.07,751.66 492.09,750.59 491.17,750.08C489.71,749.26 489.82,749.02 492.00,748.20C493.38,747.69 497.20,746.95 500.50,746.55C503.80,746.16 511.72,744.75 518.09,743.42C524.47,742.08 535.69,739.19 543.01,737.00C550.34,734.80 558.41,733.00 560.94,733.00C564.81,733.00 567.54,734.13 578.02,740.09C584.89,744.00 593.85,748.55 597.95,750.21C602.04,751.87 608.01,753.46 611.20,753.75C615.42,754.13 617.00,753.94 617.00,753.04C617.00,752.36 616.16,750.61 615.12,749.15C614.09,747.69 610.66,741.33 607.50,735.00C604.34,728.67 600.88,722.27 599.81,720.76C598.75,719.25 598.14,717.59 598.46,717.07C598.81,716.50 601.12,716.74 604.27,717.67C607.15,718.53 613.77,720.70 619.00,722.50C624.23,724.30 631.58,727.17 635.34,728.88C639.11,730.60 642.82,732.00 643.59,732.00C644.37,732.00 645.00,731.62 645.00,731.15C645.00,730.68 643.70,728.50 642.11,726.31C640.52,724.11 635.79,718.65 631.61,714.18C627.42,709.71 624.00,705.63 624.00,705.13C624.00,704.63 624.71,703.94 625.58,703.61C626.45,703.27 629.09,703.00 631.45,703.00C633.81,703.00 639.73,703.69 644.62,704.54C649.50,705.39 661.38,708.76 671.00,712.03C680.62,715.30 693.23,719.10 699.00,720.47C704.77,721.83 714.11,723.64 719.74,724.48C725.38,725.31 730.66,726.00 731.49,726.00C732.32,726.00 733.00,725.55 733.00,725.00C733.00,724.45 731.35,721.64 729.33,718.75C727.32,715.86 723.15,710.89 720.08,707.70C717.01,704.51 710.23,699.17 705.00,695.82C699.77,692.47 694.42,689.07 693.10,688.24C690.96,686.92 690.88,686.65 692.36,685.82C693.28,685.30 700.89,684.01 709.26,682.94C717.64,681.88 731.92,680.75 741.00,680.43C750.08,680.12 759.52,680.24 762.00,680.71C766.50,681.55 766.50,681.55 766.82,692.03C767.00,697.79 766.84,710.66 766.47,720.64C765.79,738.78 765.79,738.78 756.65,742.05C751.62,743.85 737.61,748.65 725.53,752.71C713.45,756.78 703.44,760.22 703.30,760.37C703.16,760.51 706.97,762.26 711.77,764.26C720.50,767.88 720.50,767.88 712.42,767.94zM297.42,750.86C291.41,750.78 278.40,750.10 268.50,749.36C258.60,748.61 239.47,746.67 226.00,745.04C212.53,743.42 193.85,741.60 184.50,740.99C175.15,740.39 162.32,739.23 156.00,738.42C149.68,737.61 140.00,735.86 134.49,734.55C128.99,733.23 120.72,730.78 116.12,729.10C111.52,727.43 104.81,724.43 101.20,722.44C97.59,720.46 91.23,716.31 87.07,713.23C82.91,710.14 75.16,703.29 69.87,698.00C64.57,692.70 59.33,686.60 58.23,684.44C57.12,682.27 55.45,678.02 54.50,675.00C53.26,671.03 52.66,664.76 52.35,652.50C51.91,635.50 51.91,635.50 58.01,642.00C61.36,645.58 68.69,653.75 74.30,660.17C79.91,666.59 86.21,673.79 88.30,676.17C92.11,680.50 92.11,680.50 91.54,675.50C91.23,672.75 90.69,667.84 90.34,664.60C89.85,660.10 89.98,658.87 90.91,659.44C91.57,659.85 95.96,666.11 100.66,673.34C107.08,683.22 111.74,689.00 119.36,696.51C124.94,702.02 133.32,709.05 138.00,712.13C142.68,715.21 151.94,720.46 158.58,723.79C165.23,727.12 173.25,730.60 176.40,731.52C179.56,732.43 182.37,732.96 182.64,732.70C182.91,732.43 179.39,729.07 174.81,725.23C170.24,721.40 161.97,713.59 156.44,707.88C150.91,702.17 144.01,693.97 141.10,689.66C138.19,685.34 134.28,678.59 132.41,674.65C130.54,670.71 128.25,663.99 127.32,659.72C126.27,654.85 125.99,651.61 126.58,651.02C127.18,650.42 130.32,651.73 135.01,654.52C139.13,656.97 142.84,658.98 143.25,658.99C143.66,658.99 144.00,657.20 144.00,655.00C144.00,651.84 144.37,651.00 145.77,651.00C146.74,651.00 149.33,652.19 151.52,653.65C153.71,655.11 157.97,658.35 161.00,660.85C164.03,663.36 173.47,672.21 182.00,680.52C190.53,688.84 200.65,698.14 204.50,701.19C208.35,704.25 216.29,709.94 222.13,713.83C227.98,717.73 238.78,724.05 246.13,727.86C253.49,731.68 263.55,736.40 268.50,738.35C273.45,740.30 284.17,743.68 292.32,745.85C300.47,748.02 307.40,750.07 307.73,750.40C308.06,750.73 303.42,750.94 297.42,750.86zM62.80,721.11C62.62,721.65 60.31,720.94 57.67,719.54C55.03,718.14 50.14,715.13 46.79,712.86C43.44,710.58 35.34,704.23 28.80,698.75C22.25,693.27 13.10,685.18 8.45,680.78C-0.00,672.78 -0.00,672.78 -0.00,651.78C-0.00,630.78 -0.00,630.78 2.72,631.47C4.21,631.84 8.00,633.73 11.13,635.66C14.26,637.59 19.83,641.65 23.50,644.68C27.17,647.71 31.58,652.18 33.30,654.62C35.02,657.07 38.84,664.34 41.79,670.78C44.74,677.23 50.01,689.55 53.51,698.16C57.00,706.77 60.59,715.24 61.49,716.98C62.39,718.72 62.97,720.58 62.80,721.11zM309.00,713.83C300.48,713.77 288.55,713.33 282.50,712.85C276.45,712.38 267.05,710.88 261.61,709.52C256.17,708.17 248.80,705.69 245.24,704.02C241.67,702.36 235.72,698.97 232.01,696.51C228.31,694.05 222.14,689.13 218.30,685.58C214.47,682.03 208.93,675.65 206.00,671.41C203.07,667.16 199.42,660.48 197.89,656.55C196.37,652.63 194.80,647.00 194.41,644.05C193.77,639.23 193.88,638.74 195.41,639.33C196.34,639.69 200.50,642.12 204.63,644.74C208.76,647.36 214.03,650.87 216.32,652.54C219.24,654.66 220.86,656.78 221.68,659.54C222.32,661.72 223.81,667.10 224.98,671.50C226.24,676.27 228.48,681.52 230.52,684.50C232.40,687.25 236.12,691.36 238.78,693.64C241.45,695.92 245.89,699.18 248.67,700.89C251.44,702.60 255.12,704.27 256.85,704.62C258.58,704.97 260.00,704.98 260.00,704.64C260.00,704.31 258.37,701.49 256.38,698.38C254.39,695.26 251.27,689.46 249.46,685.48C247.64,681.50 245.71,676.61 245.16,674.62C244.46,672.07 244.48,671.00 245.24,671.00C245.84,671.00 249.51,673.61 253.41,676.79C257.31,679.98 262.75,684.20 265.50,686.16C268.25,688.13 272.03,690.52 273.90,691.47C277.17,693.14 277.26,693.13 276.55,691.35C276.14,690.33 275.56,687.81 275.27,685.75C274.90,683.14 275.11,682.00 275.98,682.00C276.67,682.00 279.99,684.56 283.37,687.68C286.74,690.81 292.88,695.58 297.00,698.28C301.12,700.99 308.10,704.91 312.50,706.98C316.90,709.06 321.40,711.48 322.50,712.35C324.35,713.82 323.32,713.93 309.00,713.83zM397.50,651.85C391.45,651.77 380.91,651.34 374.07,650.87C367.23,650.41 356.43,649.11 350.07,647.99C343.71,646.86 333.33,644.57 327.02,642.89C320.70,641.22 311.67,638.36 306.95,636.53C302.22,634.71 291.98,630.20 284.18,626.52C270.00,619.81 270.00,619.81 252.25,618.97C238.09,618.30 232.58,617.60 225.00,615.53C218.88,613.85 209.09,609.75 197.50,604.02C187.60,599.12 177.25,594.37 174.50,593.47C171.75,592.56 166.57,591.19 163.00,590.43C158.28,589.42 148.28,589.03 126.50,589.01C110.00,588.99 91.33,588.53 85.00,587.97C78.68,587.41 68.33,585.79 62.00,584.38C55.68,582.97 46.55,580.29 41.73,578.44C36.91,576.58 30.84,573.85 28.23,572.37C25.63,570.89 18.21,566.32 11.75,562.21C-0.00,554.75 -0.00,554.75 0.02,530.62C0.04,506.50 0.04,506.50 3.77,503.41C5.82,501.71 8.53,499.68 9.78,498.91C11.76,497.69 12.19,497.70 13.02,499.00C13.54,499.82 13.98,502.52 14.00,505.00C14.02,507.48 14.43,510.13 14.92,510.90C15.66,512.07 17.00,511.86 22.96,509.65C26.89,508.19 32.06,507.00 34.43,507.00C37.05,507.00 39.25,507.59 40.00,508.50C40.92,509.61 41.05,512.70 40.52,520.50C39.84,530.59 39.89,531.00 41.82,531.00C42.92,531.00 47.96,529.42 53.00,527.50C58.04,525.58 62.98,524.00 63.98,524.00C64.97,524.00 66.10,524.79 66.49,525.75C66.88,526.71 68.07,531.09 69.14,535.48C70.21,539.87 72.23,545.43 73.64,547.83C75.05,550.24 78.76,554.75 81.88,557.85C85.00,560.96 89.90,564.77 92.78,566.31C95.65,567.86 98.00,568.94 98.00,568.72C98.00,568.50 95.77,563.95 93.05,558.60C90.33,553.26 87.81,546.89 87.44,544.46C87.08,542.02 87.06,538.89 87.41,537.51C87.75,536.13 88.50,535.00 89.07,535.00C89.64,535.00 93.09,536.80 96.74,539.00C100.39,541.20 103.79,543.00 104.30,543.00C104.80,543.00 104.91,541.76 104.54,540.25C104.16,538.74 102.50,535.38 100.85,532.79C99.19,530.19 97.99,527.27 98.17,526.29C98.39,525.08 100.66,523.78 105.20,522.26C108.88,521.03 114.98,519.74 118.76,519.39C124.47,518.86 126.43,519.10 130.31,520.81C133.63,522.28 135.45,523.87 136.62,526.32C138.12,529.48 138.13,530.35 136.72,536.64C135.87,540.41 135.36,543.69 135.58,543.91C135.81,544.14 138.19,543.13 140.88,541.66C143.57,540.20 146.50,539.00 147.39,539.00C148.27,539.00 149.00,539.47 149.00,540.05C149.00,540.63 148.34,542.37 147.53,543.93C146.73,545.49 144.93,547.05 143.53,547.40C141.41,547.94 141.00,548.62 141.00,551.65C141.00,553.64 141.52,557.01 142.16,559.14C142.80,561.27 144.86,564.82 146.75,567.02C148.64,569.22 152.13,572.37 154.52,574.01C157.23,575.88 159.49,576.75 160.55,576.34C161.98,575.79 162.15,574.81 161.60,570.10C161.24,567.02 160.68,561.29 160.34,557.38C160.00,553.46 160.04,548.59 160.42,546.57C160.80,544.55 161.99,542.01 163.06,540.94C164.58,539.42 166.39,539.00 171.39,539.00C175.99,539.00 178.38,539.49 179.95,540.75C181.14,541.72 183.32,544.72 184.81,547.42C186.29,550.12 188.30,552.82 189.28,553.42C190.70,554.28 192.27,553.83 196.96,551.25C200.21,549.46 203.36,548.00 203.98,548.00C204.59,548.00 206.90,551.94 209.11,556.75C211.32,561.56 213.85,566.28 214.72,567.25C215.60,568.21 216.84,569.00 217.49,569.00C218.15,569.00 219.20,567.86 219.83,566.47C220.47,565.07 221.27,562.16 221.62,559.99C221.97,557.81 222.76,555.64 223.37,555.16C223.99,554.67 227.15,553.98 230.38,553.61C233.62,553.25 236.97,552.56 237.84,552.07C239.12,551.35 238.03,549.76 231.86,543.35C227.71,539.03 224.00,534.65 223.63,533.61C223.23,532.50 223.63,530.69 224.60,529.21C226.24,526.71 226.24,526.71 237.87,527.36C244.27,527.72 253.09,528.92 257.47,530.03C261.86,531.14 265.88,532.48 266.40,533.00C267.00,533.60 266.75,534.62 265.71,535.76C264.81,536.76 263.34,539.34 262.43,541.51C261.50,543.75 260.56,549.55 260.27,554.97C259.99,560.21 260.26,567.88 260.89,572.00C261.59,576.63 263.35,582.20 265.48,586.57C267.41,590.53 271.59,596.54 275.00,600.25C278.33,603.90 282.65,607.86 284.58,609.05C286.52,610.25 288.34,610.99 288.63,610.71C288.91,610.42 287.95,606.43 286.49,601.84C284.50,595.60 283.69,590.54 283.27,581.75C282.92,574.46 283.07,570.00 283.67,570.00C284.20,570.00 287.16,573.71 290.25,578.25C293.33,582.79 299.55,590.77 304.06,596.00C308.57,601.23 313.11,605.91 314.14,606.41C315.17,606.91 316.24,607.09 316.52,606.81C316.79,606.54 316.14,601.18 315.07,594.91C314.00,588.63 312.81,580.01 312.42,575.75C311.81,568.94 311.92,568.00 313.37,568.00C314.27,568.00 320.52,573.20 327.26,579.55C333.99,585.90 343.82,594.42 349.11,598.49C354.39,602.56 362.71,608.33 367.61,611.31C372.50,614.29 380.55,618.76 385.50,621.25C390.45,623.73 399.45,627.80 405.50,630.28C411.55,632.76 421.00,636.18 426.50,637.87C432.00,639.55 440.24,641.91 444.82,643.10C450.14,644.48 452.80,645.60 452.18,646.22C451.65,646.75 447.01,647.79 441.86,648.55C436.71,649.30 427.10,650.38 420.50,650.95C413.90,651.52 403.55,651.92 397.50,651.85zM511.50,629.43C489.50,629.68 467.23,629.45 462.00,628.93C456.77,628.41 447.21,627.09 440.73,626.01C434.26,624.92 424.59,622.59 419.23,620.81C413.88,619.04 404.55,615.09 398.50,612.03C392.45,608.98 382.79,603.56 377.03,599.99C370.87,596.17 363.66,590.62 359.53,586.50C354.79,581.78 350.44,575.99 346.20,568.75C342.73,562.84 339.45,558.00 338.91,558.00C338.37,558.00 336.18,558.89 334.06,559.97C331.09,561.48 329.98,561.66 329.28,560.72C328.77,560.05 325.60,552.98 322.22,545.00C318.84,537.02 315.15,527.48 314.01,523.79C312.88,520.10 311.53,516.82 311.01,516.51C310.50,516.19 306.24,519.82 301.56,524.59C293.84,532.42 292.78,533.17 290.27,532.53C288.75,532.15 283.45,531.46 278.50,531.02C273.55,530.58 267.50,529.48 265.05,528.58C262.60,527.68 259.79,526.21 258.80,525.32C257.81,524.42 257.00,523.31 257.00,522.85C257.00,522.38 258.72,522.00 260.82,522.00C262.92,522.00 267.08,522.73 270.07,523.61C273.06,524.50 277.62,526.30 280.22,527.61C282.81,528.93 285.17,530.00 285.47,530.00C285.76,530.00 286.00,529.43 286.00,528.74C286.00,528.05 283.52,523.79 280.50,519.27C277.48,514.75 275.00,510.42 275.00,509.64C275.00,508.82 276.38,507.99 278.25,507.67C280.04,507.36 284.99,506.81 289.26,506.44C293.53,506.07 297.28,505.35 297.60,504.84C297.91,504.34 297.59,501.68 296.89,498.94C295.68,494.23 295.76,493.64 298.24,488.58C299.69,485.63 300.60,482.94 300.27,482.60C299.94,482.27 298.25,482.00 296.51,482.00C294.77,482.00 290.06,483.12 286.05,484.48C282.01,485.86 276.83,488.54 274.45,490.48C272.09,492.42 269.87,494.00 269.50,494.00C269.14,494.00 267.52,492.68 265.90,491.06C264.29,489.44 258.67,485.79 253.42,482.96C246.86,479.41 243.58,477.02 242.94,475.33C242.42,473.98 242.00,471.17 242.00,469.09C242.00,466.74 242.66,464.73 243.75,463.78C244.71,462.94 247.17,461.72 249.20,461.07C251.24,460.41 254.22,458.38 255.82,456.55C257.48,454.66 259.29,450.97 259.99,448.04C260.94,444.07 261.80,442.64 263.68,441.93C265.03,441.42 267.79,441.00 269.82,441.01C271.84,441.01 274.68,441.80 276.12,442.76C277.57,443.71 279.95,445.35 281.43,446.40C282.99,447.50 284.46,447.92 284.95,447.40C285.42,446.90 285.97,443.03 286.17,438.78C286.37,434.54 287.04,430.56 287.66,429.94C288.49,429.11 289.34,429.11 290.94,429.97C292.13,430.60 293.57,432.33 294.15,433.81C294.72,435.29 296.52,441.60 298.15,447.84C299.77,454.08 302.05,461.73 303.21,464.84C304.37,467.95 307.29,473.65 309.69,477.50C312.08,481.35 314.47,486.07 314.99,488.00C315.51,489.93 317.03,497.35 318.37,504.50C319.71,511.65 321.52,519.16 322.39,521.18C323.26,523.21 324.43,525.15 324.98,525.49C325.54,525.84 326.01,525.75 326.03,525.31C326.04,524.86 326.48,517.58 327.00,509.12C327.52,500.67 328.21,492.91 328.54,491.87C328.87,490.84 329.50,490.00 329.94,490.00C330.38,490.00 331.96,492.81 333.45,496.25C334.94,499.69 338.19,505.85 340.67,509.94C343.15,514.03 348.06,521.00 351.58,525.44C355.10,529.87 361.61,538.00 366.05,543.50C370.48,549.00 375.77,556.14 377.81,559.37C379.84,562.61 383.75,568.55 386.50,572.59C389.25,576.63 397.12,586.78 404.00,595.15C410.88,603.52 417.80,611.63 419.40,613.18C420.99,614.73 422.90,616.00 423.65,616.00C424.39,616.00 425.00,615.56 425.00,615.01C425.00,614.47 422.88,609.76 420.29,604.55C417.71,599.34 415.88,594.79 416.23,594.43C416.59,594.08 422.33,596.82 428.99,600.53C435.65,604.25 443.89,608.28 447.30,609.50C450.71,610.72 454.96,611.99 456.75,612.33C458.54,612.67 460.00,612.59 460.00,612.14C460.00,611.70 457.64,609.69 454.75,607.68C451.86,605.67 447.02,601.82 444.00,599.12C440.98,596.42 438.75,593.95 439.05,593.64C439.35,593.32 442.73,594.65 446.55,596.58C450.37,598.51 457.42,601.86 462.22,604.03C467.02,606.20 476.22,609.79 482.66,612.01C489.11,614.24 498.01,616.98 502.44,618.12C506.87,619.25 514.10,620.82 518.50,621.61C522.90,622.41 534.00,623.33 543.17,623.68C554.47,624.10 562.84,623.90 569.17,623.03C574.30,622.33 586.60,619.78 596.50,617.37C606.40,614.96 617.42,612.71 621.00,612.37C625.45,611.96 632.39,612.49 643.00,614.05C651.52,615.31 661.65,616.31 665.50,616.27C669.37,616.24 675.15,615.37 678.42,614.33C681.68,613.31 684.51,611.98 684.71,611.38C684.90,610.79 682.01,609.34 678.28,608.17C674.55,607.00 666.10,604.64 659.50,602.93C652.90,601.22 647.12,599.46 646.66,599.02C646.20,598.58 646.29,597.94 646.86,597.59C647.43,597.23 657.71,594.88 669.70,592.36C681.69,589.84 698.25,585.59 706.50,582.92C716.67,579.62 728.08,574.83 741.92,568.03C753.15,562.51 763.34,558.00 764.56,558.00C765.79,558.00 767.08,558.78 767.45,559.72C767.81,560.67 767.79,568.33 767.41,576.74C766.75,591.22 766.60,592.06 764.61,592.44C763.45,592.67 757.16,593.80 750.64,594.96C743.77,596.19 729.88,599.98 717.64,603.98C706.01,607.78 689.30,613.36 680.50,616.40C669.64,620.14 661.03,622.42 653.72,623.48C647.04,624.45 628.98,625.42 606.22,626.03C586.02,626.58 565.45,627.46 560.50,628.00C555.55,628.53 533.50,629.17 511.50,629.43zM559.00,604.45C537.70,604.83 528.48,604.61 522.50,603.60C518.10,602.86 511.57,601.49 508.00,600.55C504.43,599.62 493.62,596.61 484.00,593.87C474.38,591.13 459.52,586.60 451.00,583.82C442.48,581.03 431.45,576.81 426.50,574.45C421.55,572.08 413.91,567.76 409.52,564.86C405.13,561.96 396.25,554.45 389.78,548.17C381.72,540.34 377.23,535.13 375.51,531.61C374.12,528.78 372.33,523.32 371.51,519.48C370.70,515.64 370.03,510.59 370.02,508.25C370.01,505.91 370.45,504.00 371.01,504.00C371.56,504.00 374.25,507.04 376.99,510.75C379.73,514.46 384.47,522.23 387.53,528.00C390.58,533.77 394.67,540.30 396.62,542.50C399.80,546.07 400.12,546.23 399.68,544.00C399.41,542.62 398.03,536.55 396.60,530.50C395.18,524.45 394.01,518.26 394.01,516.75C394.00,515.24 394.22,514.00 394.49,514.00C394.77,514.00 400.21,519.29 406.60,525.75C412.98,532.21 423.67,544.01 430.35,551.97C437.03,559.93 444.98,568.94 448.00,572.00C451.02,575.05 456.20,578.96 459.50,580.68C462.80,582.40 467.19,584.26 469.25,584.82C471.31,585.38 473.00,585.49 473.00,585.07C473.00,584.65 469.62,579.73 465.50,574.13C461.38,568.53 458.00,563.74 458.00,563.48C458.00,563.21 458.71,563.00 459.58,563.00C460.45,563.00 464.98,564.35 469.66,566.00C474.33,567.65 479.06,569.00 480.16,569.00C481.38,569.00 481.96,568.51 481.65,567.75C481.36,567.06 480.58,564.81 479.90,562.74C479.23,560.68 478.98,558.69 479.34,558.33C479.70,557.96 483.94,560.38 488.75,563.70C493.56,567.02 499.75,570.87 502.50,572.26C505.25,573.64 512.00,575.67 517.50,576.78C523.28,577.93 534.71,581.56 544.61,585.36C554.02,588.98 568.98,594.09 577.86,596.70C586.74,599.32 594.00,601.76 594.00,602.12C594.00,602.48 592.54,603.04 590.75,603.36C588.96,603.69 574.67,604.18 559.00,604.45zM609.00,581.82C603.23,581.75 596.92,581.52 595.00,581.33C593.08,581.14 587.23,580.26 582.01,579.36C576.80,578.46 570.09,576.89 567.11,575.87C564.13,574.84 560.94,574.00 560.02,574.00C559.11,574.00 553.40,571.52 547.34,568.49C539.13,564.39 534.66,561.39 529.84,556.74C526.28,553.31 521.96,548.43 520.24,545.90C518.52,543.38 516.82,540.11 516.45,538.65C515.95,536.67 516.16,536.00 517.28,536.00C518.10,536.00 522.76,539.05 527.64,542.79C532.51,546.52 542.46,554.39 549.75,560.29C557.04,566.18 563.68,571.00 564.52,571.00C565.81,571.00 565.75,570.43 564.13,567.25C563.08,565.19 560.99,559.57 559.50,554.77C558.00,549.96 557.06,545.30 557.40,544.40C557.94,542.98 558.46,543.12 561.26,545.39C563.04,546.83 570.37,551.98 577.53,556.84C584.70,561.69 594.48,567.79 599.26,570.40C604.04,573.00 610.55,576.02 613.72,577.11C616.90,578.20 620.16,579.32 620.97,579.60C622.27,580.05 622.27,580.22 620.97,581.04C620.16,581.55 614.77,581.90 609.00,581.82zM651.50,573.83C648.75,573.78 645.38,573.52 644.00,573.26C642.63,573.01 638.59,571.47 635.02,569.86C631.46,568.24 623.49,563.56 617.32,559.45C611.15,555.34 605.83,551.53 605.49,550.99C605.16,550.44 605.74,550.00 606.80,550.00C607.85,550.00 614.74,550.92 622.10,552.05C629.47,553.18 637.52,554.55 640.00,555.10C642.48,555.65 652.71,558.83 662.75,562.18C672.79,565.52 681.00,568.61 681.00,569.03C681.00,569.45 678.86,570.30 676.25,570.92C673.64,571.53 668.12,572.46 664.00,572.99C659.88,573.51 654.25,573.89 651.50,573.83zM653.50,544.63C649.65,544.74 643.00,544.44 638.72,543.96C634.45,543.48 627.49,542.12 623.26,540.93C619.03,539.74 610.38,536.99 604.03,534.82C597.69,532.64 591.84,530.22 591.04,529.43C589.76,528.18 590.02,527.99 593.04,527.94C594.94,527.90 606.62,527.74 619.00,527.57C631.38,527.40 645.77,526.73 651.00,526.09C656.23,525.45 664.77,524.06 670.00,522.99C675.23,521.93 682.42,520.13 686.00,518.98C689.58,517.84 697.45,514.47 703.50,511.49C709.90,508.33 719.20,502.54 725.73,497.63C731.91,492.98 742.49,484.49 749.23,478.76C755.98,473.03 762.70,467.57 764.16,466.62C766.04,465.39 767.02,465.22 767.52,466.03C767.90,466.65 767.89,480.59 767.48,497.01C766.75,526.86 766.75,526.86 764.12,527.87C762.68,528.42 754.75,531.34 746.50,534.35C738.25,537.36 726.88,540.81 721.23,542.01C715.58,543.21 707.07,544.27 702.33,544.35C697.32,544.44 693.57,544.08 693.38,543.50C693.21,542.95 697.87,539.35 703.75,535.50C709.63,531.65 717.26,525.86 720.72,522.64C724.17,519.41 727.00,516.37 727.00,515.89C727.00,515.40 726.37,515.00 725.60,515.00C724.84,515.00 717.07,518.53 708.35,522.84C699.63,527.15 685.30,533.78 676.50,537.56C662.30,543.67 659.71,544.46 653.50,544.63zM463.72,541.00C462.87,541.00 460.12,538.70 457.60,535.89C455.07,533.09 451.39,527.51 449.41,523.51C447.43,519.51 446.00,515.39 446.23,514.36C446.58,512.83 447.61,513.48 452.08,518.05C455.06,521.10 458.95,526.05 460.73,529.06C462.50,532.06 464.25,535.98 464.60,537.76C465.11,540.29 464.91,541.00 463.72,541.00zM429.98,524.51C429.56,524.77 427.54,523.13 425.49,520.86C423.45,518.59 420.72,514.44 419.44,511.62C418.16,508.80 416.54,504.38 415.85,501.78C415.17,499.19 414.96,496.71 415.41,496.28C415.85,495.85 418.12,497.66 420.45,500.30C422.79,502.94 425.63,506.99 426.77,509.30C427.92,511.61 429.28,515.87 429.79,518.77C430.31,521.67 430.39,524.26 429.98,524.51zM595.00,518.48C583.73,518.70 570.90,518.45 566.50,517.91C562.10,517.38 551.84,515.58 543.70,513.92C535.56,512.26 521.06,508.68 511.48,505.97C501.90,503.25 488.99,499.17 482.78,496.91C476.58,494.64 464.09,489.22 455.03,484.86C445.96,480.49 433.59,474.18 427.53,470.82C421.46,467.47 411.10,461.12 404.50,456.71C397.90,452.30 388.23,445.27 383.01,441.09C377.80,436.92 366.54,426.52 358.00,418.00C347.53,407.55 337.95,396.66 328.63,384.60C321.01,374.75 313.32,364.40 311.53,361.60C309.74,358.79 306.80,353.59 305.01,350.03C303.22,346.48 300.50,338.60 298.97,332.53C297.44,326.47 295.40,316.32 294.45,310.00C293.42,303.21 292.68,292.35 292.65,283.50C292.60,272.31 293.06,266.39 294.45,260.19C295.51,255.47 297.65,249.64 299.42,246.69C301.64,242.97 303.89,240.76 307.37,238.88C310.04,237.43 316.79,235.25 322.36,234.03C327.94,232.81 333.85,231.97 335.50,232.16C338.28,232.47 338.50,232.79 338.48,236.50C338.47,238.70 338.11,241.80 337.68,243.39C336.90,246.26 336.92,246.27 340.55,245.69C342.56,245.36 347.01,243.78 350.44,242.18C356.47,239.35 356.66,239.33 356.28,241.38C355.96,243.10 356.75,243.85 360.44,245.35C362.94,246.36 366.12,248.61 367.50,250.35C368.89,252.08 370.37,253.93 370.81,254.45C371.24,254.97 371.41,256.66 371.18,258.20C370.88,260.30 371.18,261.00 372.43,261.00C373.34,261.00 375.97,260.04 378.29,258.86C380.61,257.69 383.57,255.89 384.88,254.86C386.20,253.84 387.82,253.00 388.48,253.00C389.15,253.00 391.42,255.81 393.52,259.25C395.62,262.69 398.45,267.64 399.80,270.25C401.15,272.86 402.86,275.00 403.59,275.00C404.33,275.00 405.34,274.21 405.84,273.25C406.34,272.29 407.05,269.25 407.42,266.50C407.79,263.75 408.57,260.26 409.17,258.75C409.89,256.89 410.97,256.00 412.48,256.00C413.71,256.00 417.37,257.34 420.61,258.99C423.85,260.63 426.61,261.98 426.75,261.99C426.89,261.99 427.00,261.09 427.00,259.97C427.00,258.85 426.34,256.36 425.53,254.43C424.73,252.50 422.38,248.80 420.31,246.21C418.24,243.62 414.76,239.81 412.59,237.73C410.25,235.51 409.01,233.62 409.57,233.12C410.08,232.66 413.15,231.77 416.39,231.15C419.63,230.52 422.87,229.53 423.58,228.93C424.30,228.34 424.65,227.25 424.36,226.50C424.08,225.76 423.09,224.83 422.17,224.44C421.25,224.04 415.77,222.04 410.00,219.99C402.70,217.41 399.61,215.85 399.87,214.89C400.07,214.12 400.46,211.63 400.74,209.35C401.15,205.92 400.92,205.12 399.37,204.67C398.34,204.37 394.35,203.81 390.50,203.44C384.77,202.88 381.83,201.85 374.32,197.83C367.30,194.06 365.17,192.44 365.28,190.95C365.39,189.46 366.15,189.01 368.46,189.06C370.13,189.09 373.62,189.47 376.21,189.89C378.80,190.32 381.45,190.34 382.10,189.94C382.76,189.53 383.01,188.47 382.67,187.59C382.33,186.70 380.87,185.52 379.42,184.97C377.98,184.42 374.03,183.34 370.65,182.56C367.27,181.78 362.38,180.59 359.80,179.91C355.71,178.85 354.89,178.18 353.55,174.82C352.70,172.70 352.00,170.75 352.00,170.50C352.00,170.25 354.02,170.32 356.50,170.66C360.29,171.18 361.00,171.01 361.00,169.59C361.00,168.67 359.93,166.83 358.61,165.52C357.24,164.15 352.67,162.04 347.86,160.56C343.26,159.14 338.82,157.55 338.00,157.01C336.72,156.17 336.75,156.03 338.25,156.02C339.49,156.00 340.00,155.20 340.00,153.25C339.99,151.74 339.10,149.03 338.01,147.24C336.91,145.45 334.57,143.10 332.80,142.02C331.03,140.95 326.62,139.39 323.01,138.57C319.39,137.75 312.63,135.31 307.97,133.14C303.31,130.98 297.12,128.71 294.20,128.11C291.29,127.50 286.11,127.00 282.70,127.00C279.29,127.00 272.45,127.49 267.50,128.09C262.55,128.69 254.90,130.01 250.50,131.03C246.10,132.06 238.98,134.05 234.67,135.46C230.36,136.88 221.99,140.19 216.07,142.84C210.15,145.48 199.57,150.98 192.55,155.07C185.54,159.16 173.06,167.54 164.84,173.70C156.61,179.87 147.09,187.27 143.69,190.16C140.29,193.05 133.00,199.48 127.51,204.46C122.01,209.43 98.61,232.45 75.51,255.62C52.40,278.79 30.35,300.05 26.50,302.87C22.65,305.69 16.12,309.75 12.00,311.88C7.88,314.02 3.49,316.08 2.25,316.45C0.00,317.13 0.00,317.13 0.00,275.18C0.00,233.23 0.00,233.23 2.25,232.63C3.49,232.30 9.88,232.02 16.45,232.01C23.02,232.01 33.39,232.49 39.49,233.08C45.60,233.68 57.32,235.41 65.55,236.93C73.77,238.44 81.17,239.34 82.00,238.93C82.83,238.52 92.73,229.02 104.01,217.84C115.29,206.65 131.04,192.17 139.01,185.65C146.98,179.14 159.35,169.62 166.50,164.49C173.65,159.37 183.55,152.84 188.50,149.98C193.45,147.12 200.97,143.04 205.22,140.90C209.47,138.76 217.37,135.24 222.78,133.09C228.20,130.93 236.88,128.02 242.06,126.63C247.25,125.23 256.28,123.40 262.13,122.55C267.97,121.70 276.75,121.01 281.63,121.02C286.51,121.03 293.58,121.69 297.35,122.49C301.11,123.28 307.05,125.54 310.55,127.49C314.04,129.45 320.61,131.97 325.14,133.09C329.67,134.22 334.53,135.74 335.94,136.47C337.35,137.20 339.30,138.68 340.28,139.76C341.26,140.84 343.08,144.37 344.34,147.61C346.59,153.43 346.69,153.53 353.56,156.26C357.38,157.78 361.48,160.13 362.67,161.47C363.86,162.82 365.40,166.53 366.09,169.71C366.77,172.90 367.73,176.02 368.21,176.66C368.70,177.30 371.44,178.37 374.30,179.05C377.16,179.72 380.66,180.85 382.07,181.57C383.49,182.28 385.24,183.58 385.96,184.45C386.68,185.32 387.54,188.56 387.88,191.66C388.27,195.18 389.06,197.57 390.00,198.03C390.82,198.44 394.20,199.27 397.50,199.87C401.22,200.55 404.11,201.71 405.11,202.93C406.00,204.00 407.01,206.63 407.35,208.77C407.69,210.91 408.81,213.42 409.83,214.35C410.85,215.27 414.33,216.72 417.56,217.56C420.78,218.40 424.90,220.21 426.70,221.59C428.51,222.96 430.25,225.16 430.58,226.47C430.91,227.77 431.02,229.64 430.83,230.62C430.61,231.77 428.99,232.78 426.28,233.45C423.97,234.03 421.61,234.98 421.03,235.56C420.30,236.30 421.22,238.25 424.11,242.06C426.38,245.05 429.04,249.30 430.02,251.50C431.00,253.70 432.08,258.20 432.43,261.50C432.77,264.80 432.67,268.06 432.21,268.76C431.57,269.71 429.47,269.18 423.29,266.51C418.84,264.58 414.71,263.00 414.12,263.00C413.52,263.00 412.76,264.24 412.43,265.75C412.09,267.26 411.38,269.95 410.84,271.72C410.21,273.79 407.83,276.56 404.18,279.47C401.06,281.95 397.94,283.99 397.25,283.99C396.39,284.00 396.00,282.17 396.00,278.15C396.00,273.73 395.45,271.49 393.75,268.99C392.51,267.17 390.27,264.77 388.77,263.66C386.03,261.64 386.03,261.64 375.93,264.83C370.38,266.58 365.42,267.76 364.92,267.45C364.41,267.14 364.00,264.64 364.00,261.89C364.00,259.15 363.32,255.59 362.49,253.98C361.66,252.37 360.11,250.60 359.06,250.03C358.00,249.46 355.88,249.00 354.35,249.00C352.82,249.00 347.33,249.79 342.15,250.75C334.68,252.13 332.42,252.95 331.28,254.70C330.48,255.91 328.79,259.99 327.51,263.76C326.24,267.54 324.63,275.07 323.95,280.51C323.13,287.02 322.93,295.35 323.37,304.94C323.74,312.95 324.88,324.23 325.91,330.00C326.94,335.77 328.27,341.74 328.86,343.25C329.95,346.00 329.95,346.00 348.12,346.00C358.12,346.00 380.52,346.90 397.90,347.99C415.28,349.09 445.48,350.44 465.00,350.99C487.76,351.64 503.37,352.52 508.50,353.47C512.90,354.28 522.80,355.85 530.50,356.96C538.20,358.07 553.50,359.96 564.50,361.16C583.18,363.18 590.34,363.35 673.00,363.67C721.67,363.87 762.53,364.26 763.79,364.54C765.94,365.03 766.07,365.49 765.79,371.62C765.50,378.18 765.50,378.18 752.20,382.55C744.88,384.96 734.66,388.93 729.49,391.38C724.32,393.83 715.68,398.42 710.29,401.59C704.91,404.76 692.17,412.82 682.00,419.50C671.83,426.18 659.45,433.92 654.50,436.69C649.55,439.47 640.10,444.43 633.50,447.72C626.90,451.01 618.35,454.87 614.50,456.30C610.65,457.73 602.85,460.27 597.17,461.94C591.49,463.61 582.04,465.87 576.17,466.97C570.30,468.06 560.10,469.63 553.50,470.45C546.90,471.27 532.05,472.67 520.50,473.55C508.95,474.44 489.18,475.36 476.56,475.60C463.95,475.84 453.44,476.23 453.21,476.46C452.98,476.69 456.78,478.87 461.65,481.31C466.52,483.75 475.68,487.79 482.00,490.28C488.32,492.77 498.68,496.38 505.00,498.29C511.32,500.20 520.05,502.55 524.40,503.51C529.89,504.73 534.46,505.09 539.40,504.70C543.30,504.39 550.94,502.97 556.36,501.54C561.79,500.11 570.56,497.33 575.86,495.35C581.16,493.37 590.62,489.55 596.88,486.87C603.13,484.19 609.26,482.00 610.50,482.00C611.74,482.00 613.20,482.56 613.75,483.25C614.30,483.94 614.97,487.78 615.24,491.79C615.51,495.79 616.02,499.35 616.36,499.69C616.70,500.03 618.83,499.48 621.10,498.46C623.37,497.43 628.66,494.22 632.86,491.32C639.75,486.57 640.62,486.21 641.75,487.72C642.44,488.63 643.00,489.97 643.00,490.69C643.00,491.41 643.61,492.00 644.35,492.00C645.10,492.00 647.92,489.64 650.61,486.75C653.31,483.86 656.86,479.82 658.51,477.77C661.47,474.09 661.59,474.04 669.50,473.77C677.50,473.50 677.50,473.50 677.50,480.16C677.50,483.82 677.84,487.16 678.27,487.59C678.69,488.02 684.54,485.62 691.27,482.26C697.99,478.90 705.83,474.15 708.68,471.70C711.53,469.26 717.11,463.62 721.09,459.18C725.06,454.73 728.92,450.86 729.65,450.58C730.48,450.26 731.77,451.58 733.02,454.03C734.13,456.21 735.51,458.00 736.08,458.00C736.65,458.00 741.03,456.36 745.81,454.36C750.59,452.36 756.45,450.12 758.82,449.39C761.20,448.65 763.00,448.45 762.82,448.95C762.65,449.44 757.55,453.15 751.50,457.19C745.45,461.23 734.23,469.20 726.56,474.91C718.89,480.62 709.21,487.52 705.06,490.25C700.90,492.97 692.55,497.59 686.50,500.51C680.45,503.43 671.75,506.99 667.16,508.42C662.57,509.85 653.34,512.12 646.66,513.46C639.97,514.80 630.23,516.38 625.00,516.98C619.77,517.58 606.27,518.25 595.00,518.48zM150.50,497.85C141.70,497.77 133.15,497.54 131.50,497.34C129.85,497.15 123.43,496.29 117.24,495.44C111.05,494.59 104.53,493.26 102.74,492.49C100.96,491.71 100.25,491.06 101.18,491.04C102.10,491.02 103.79,489.81 104.93,488.37C106.48,486.39 107.00,484.28 107.00,479.94C107.00,474.87 106.57,473.59 103.50,469.57C101.58,467.05 100.01,464.20 100.02,463.24C100.02,462.28 100.40,460.91 100.86,460.20C101.35,459.43 106.11,458.32 112.59,457.49C118.59,456.71 127.60,455.31 132.62,454.38C137.63,453.45 142.44,452.96 143.31,453.29C144.17,453.62 145.70,455.13 146.69,456.65C148.03,458.69 148.63,462.09 149.00,469.72C149.50,480.03 149.50,480.03 156.36,476.01C160.13,473.81 164.24,472.00 165.49,472.00C166.74,472.00 168.23,472.57 168.81,473.27C169.40,473.98 170.18,476.90 170.56,479.77C170.95,482.65 171.67,485.00 172.17,485.00C172.66,485.00 176.02,482.74 179.62,479.98C183.22,477.23 187.52,474.27 189.17,473.41C190.83,472.56 192.87,472.12 193.72,472.44C194.95,472.92 195.12,474.04 194.58,478.12C194.21,480.91 193.20,484.97 192.33,487.13C191.47,489.29 189.94,491.49 188.95,492.03C187.95,492.56 182.49,494.12 176.82,495.50C167.81,497.68 164.47,497.98 150.50,497.85zM92.50,491.83C88.65,491.80 83.03,491.38 80.00,490.91C76.97,490.44 69.33,489.09 63.00,487.92C56.67,486.74 45.65,483.86 38.50,481.52C31.35,479.18 20.55,474.75 14.50,471.66C8.45,468.58 2.71,465.43 1.75,464.67C0.79,463.90 -0.00,462.72 -0.00,462.03C-0.00,461.17 0.85,461.00 2.75,461.47C4.26,461.85 10.16,464.15 15.85,466.58C21.54,469.01 27.05,471.00 28.10,471.00C29.14,471.00 30.00,470.54 30.00,469.97C30.00,469.40 29.39,467.49 28.65,465.72C27.91,463.95 26.11,461.09 24.65,459.36C23.19,457.63 22.00,455.65 22.00,454.97C22.00,454.11 23.20,453.90 26.00,454.27C28.20,454.57 32.81,456.15 36.25,457.79C39.69,459.42 44.94,462.62 47.93,464.88C50.92,467.15 53.72,469.00 54.17,469.00C54.61,469.00 55.60,467.50 56.37,465.67C57.13,463.84 59.00,461.36 60.51,460.17C62.47,458.63 64.66,458.00 68.06,458.00C71.09,458.00 73.44,458.58 74.43,459.57C75.29,460.44 76.00,462.32 76.00,463.76C76.00,465.19 76.91,468.25 78.03,470.56C79.14,472.86 82.64,477.17 85.80,480.13C88.96,483.08 93.34,486.94 95.52,488.70C99.50,491.89 99.50,491.89 92.50,491.83zM206.36,487.00C205.61,487.00 205.02,486.44 205.04,485.75C205.06,485.06 205.71,481.84 206.48,478.59C207.36,474.90 207.68,470.35 207.32,466.48C206.91,462.10 207.10,460.06 207.97,459.52C208.72,459.05 211.52,460.38 215.06,462.88C218.27,465.14 221.84,467.00 222.98,467.00C224.27,467.00 225.41,466.06 226.00,464.50C226.52,463.12 227.39,462.00 227.93,462.00C228.47,462.00 229.37,463.69 229.95,465.75C230.52,467.81 230.99,471.84 230.99,474.69C231.00,477.55 230.60,480.13 230.12,480.43C229.63,480.73 228.10,480.08 226.71,478.99C225.32,477.89 223.53,477.00 222.73,477.00C221.93,477.00 218.23,479.25 214.50,482.00C210.77,484.75 207.11,487.00 206.36,487.00zM362.32,482.97C361.87,482.95 360.37,481.94 358.99,480.72C357.61,479.50 354.05,475.57 351.07,472.00C348.10,468.43 344.41,462.80 342.88,459.50C341.36,456.20 339.41,449.47 338.57,444.54C337.48,438.20 337.34,435.27 338.09,434.54C338.83,433.81 340.22,434.71 342.66,437.50C344.59,439.70 347.93,444.17 350.09,447.42C352.75,451.43 355.34,457.58 358.08,466.42C360.31,473.62 362.36,480.29 362.63,481.25C362.91,482.21 362.77,482.99 362.32,482.97zM529.50,467.00C531.56,467.00 539.60,466.08 547.37,464.95C555.14,463.82 568.13,461.55 576.24,459.91C584.35,458.27 595.60,455.60 601.24,453.98C606.88,452.36 613.91,450.05 616.85,448.86C620.33,447.45 621.72,446.44 620.85,445.98C620.11,445.59 616.35,444.99 612.50,444.65C608.65,444.31 601.96,443.11 597.63,441.97C593.31,440.84 587.01,438.53 583.63,436.84C580.26,435.15 574.58,431.81 571.00,429.41C567.42,427.02 562.48,423.10 560.00,420.70C557.52,418.31 553.34,413.80 550.69,410.68C548.05,407.55 545.19,405.00 544.35,405.00C543.50,405.00 538.98,408.58 534.30,412.96C529.62,417.34 523.80,421.89 521.37,423.06C518.72,424.35 516.02,424.97 514.63,424.62C513.36,424.30 509.12,420.66 505.21,416.52C501.31,412.38 497.48,409.00 496.71,409.00C495.94,409.00 492.06,411.29 488.08,414.08C484.11,416.87 477.85,420.68 474.18,422.54C470.50,424.39 464.82,426.61 461.54,427.46C458.27,428.31 450.84,429.45 445.04,430.00C439.24,430.55 424.15,430.97 411.50,430.94C398.85,430.91 386.36,430.53 383.75,430.10C381.14,429.67 379.00,429.62 379.00,429.98C379.00,430.35 380.01,431.56 381.25,432.67C382.49,433.78 386.20,436.59 389.50,438.92C395.50,443.15 395.50,443.15 414.50,442.82C433.50,442.50 433.50,442.50 437.06,449.28C439.02,453.00 441.36,456.79 442.26,457.69C443.78,459.21 444.20,459.12 448.03,456.42C450.31,454.81 454.47,452.04 457.29,450.25C460.11,448.46 463.17,447.00 464.09,447.00C465.01,447.00 466.04,448.01 466.37,449.25C466.70,450.49 466.98,452.46 466.99,453.63C466.99,454.80 467.62,456.27 468.37,456.89C469.43,457.77 470.98,457.38 475.12,455.20C478.08,453.64 484.51,449.58 489.41,446.18C494.31,442.78 498.88,440.00 499.56,440.00C500.24,440.00 501.32,441.46 501.94,443.25C502.57,445.04 503.35,449.13 503.69,452.34C504.28,457.97 504.40,458.17 506.90,457.71C508.33,457.45 512.20,456.23 515.50,455.01C519.11,453.67 524.08,452.73 528.00,452.65C534.36,452.50 534.49,452.55 534.22,454.98C534.07,456.35 532.69,458.82 531.17,460.48C529.64,462.14 527.80,464.29 527.08,465.25C525.88,466.84 526.10,467.00 529.50,467.00zM96.50,432.46C88.25,432.67 80.15,432.65 78.50,432.42C76.85,432.19 71.22,431.51 66.00,430.90C60.77,430.30 51.53,428.55 45.45,427.02C39.38,425.49 29.93,422.37 24.45,420.08C18.98,417.80 11.24,414.07 7.25,411.79C0.00,407.64 0.00,407.64 -0.00,394.77C-0.00,381.89 -0.00,381.89 3.07,383.69C4.76,384.69 10.72,389.77 16.33,395.00C21.94,400.23 28.99,406.59 32.01,409.14C35.03,411.70 40.20,415.41 43.50,417.39C46.80,419.37 50.37,421.00 51.43,421.00C52.84,421.00 51.04,418.61 44.84,412.25C40.15,407.44 35.17,401.48 33.76,399.00C32.35,396.52 29.58,390.13 27.60,384.79C25.62,379.46 24.00,374.84 24.00,374.54C24.00,374.24 24.67,374.00 25.49,374.00C26.31,374.00 29.35,376.14 32.24,378.76C35.13,381.38 39.18,384.57 41.23,385.83C44.69,387.97 45.12,388.03 47.20,386.57C48.44,385.71 50.18,385.00 51.08,385.00C52.13,385.00 54.47,388.33 57.58,394.25C61.10,400.94 64.38,405.45 69.47,410.54C73.34,414.41 78.74,419.04 81.48,420.83C84.22,422.62 87.50,424.34 88.78,424.66C90.05,424.98 91.34,425.00 91.64,424.70C91.94,424.40 90.39,421.76 88.20,418.83C86.02,415.90 83.25,411.56 82.06,409.18C80.87,406.81 79.63,402.64 79.31,399.93C78.95,396.95 79.11,395.00 79.71,395.00C80.25,395.00 82.51,396.31 84.72,397.91C86.93,399.51 93.45,403.34 99.22,406.42C104.99,409.50 112.95,413.15 116.91,414.54C120.87,415.92 126.23,417.31 128.81,417.63C133.41,418.18 133.23,418.03 119.93,409.85C112.47,405.26 98.75,397.23 89.45,392.00C76.68,384.83 71.05,381.03 66.50,376.50C62.31,372.32 59.95,368.98 58.74,365.50C57.78,362.75 56.99,358.75 57.00,356.61C57.00,352.73 57.00,352.73 61.69,353.37C64.26,353.72 67.39,354.68 68.63,355.49C69.87,356.31 73.58,360.50 76.86,364.82C80.14,369.13 84.03,373.44 85.50,374.41C86.96,375.37 88.80,375.91 89.58,375.61C90.59,375.22 90.96,373.47 90.86,369.50C90.79,366.44 91.00,363.67 91.32,363.34C91.65,363.02 92.53,362.99 93.29,363.28C94.04,363.57 96.61,367.11 98.99,371.15C101.38,375.19 106.38,382.83 110.12,388.12C113.85,393.42 118.38,398.98 120.17,400.49C121.96,401.99 123.58,402.75 123.78,402.17C123.97,401.59 123.69,399.52 123.15,397.57C122.61,395.61 122.55,393.78 123.01,393.49C123.47,393.21 130.73,396.37 139.13,400.53C147.53,404.69 155.32,407.95 156.45,407.79C157.58,407.63 158.48,407.05 158.46,406.50C158.45,405.95 156.42,404.40 153.96,403.05C151.51,401.71 147.25,398.32 144.50,395.51C141.58,392.53 137.90,387.18 135.66,382.63C133.55,378.35 132.09,374.57 132.43,374.23C132.77,373.89 137.02,374.60 141.88,375.81C146.74,377.01 152.32,378.00 154.30,378.00C156.27,378.00 158.16,377.55 158.50,377.00C158.84,376.45 159.94,376.00 160.94,376.00C161.94,376.00 167.09,377.34 172.40,378.97C177.70,380.60 184.25,382.23 186.95,382.59C191.05,383.13 192.36,382.88 194.93,381.05C196.62,379.85 197.99,378.33 197.98,377.68C197.97,377.03 194.88,375.05 191.11,373.28C187.35,371.52 182.06,368.32 179.36,366.19C176.67,364.06 173.39,361.74 172.08,361.04C170.10,359.98 169.79,360.00 170.26,361.13C170.57,361.89 171.54,364.19 172.42,366.25C173.64,369.09 173.72,370.00 172.76,370.00C172.07,370.00 168.80,368.37 165.50,366.38C162.20,364.39 157.38,360.99 154.80,358.83C152.21,356.67 149.20,353.44 148.10,351.67C147.01,349.89 144.29,343.26 142.06,336.92C138.80,327.62 138.19,324.82 138.90,322.35C139.38,320.66 140.30,318.32 140.93,317.14C141.56,315.96 142.62,315.03 143.29,315.06C143.95,315.10 146.30,317.90 148.50,321.29C150.70,324.69 154.41,328.79 156.74,330.41C159.07,332.03 161.23,333.10 161.55,332.78C161.87,332.47 161.62,329.41 161.00,326.00C160.38,322.59 160.12,319.54 160.43,319.24C160.74,318.93 162.77,319.21 164.94,319.86C167.12,320.52 171.51,323.29 174.70,326.03C177.89,328.77 182.88,331.91 185.79,333.00C188.70,334.10 192.01,335.00 193.15,335.00C194.86,335.00 195.10,334.59 194.51,332.75C194.12,331.51 193.10,327.88 192.24,324.68C190.77,319.16 190.79,318.77 192.60,316.98C193.72,315.87 197.09,314.69 200.87,314.09C204.37,313.53 208.36,312.34 209.73,311.44C211.09,310.55 211.83,309.46 211.36,309.03C210.89,308.60 208.03,307.46 205.00,306.50C201.97,305.54 198.25,303.59 196.73,302.17C195.20,300.75 193.44,297.88 192.82,295.79C192.19,293.71 191.06,292.00 190.31,292.00C189.55,292.00 186.71,293.12 184.00,294.50C181.29,295.88 178.18,297.00 177.09,297.00C176.01,297.00 174.85,296.56 174.52,296.02C174.18,295.49 174.94,293.27 176.19,291.09C177.44,288.91 178.24,286.90 177.95,286.62C177.67,286.34 173.27,285.79 168.17,285.41C161.54,284.90 158.24,284.19 156.59,282.89C155.33,281.90 152.61,277.88 150.56,273.97C148.01,269.13 147.00,266.12 147.40,264.53C147.73,263.25 150.13,260.41 152.74,258.23C155.36,256.05 161.10,251.92 165.49,249.05C172.06,244.78 174.02,243.95 176.47,244.44C178.11,244.77 180.94,246.49 182.76,248.25C184.85,250.28 186.59,253.33 187.45,256.49C188.21,259.24 189.09,262.71 189.42,264.20C189.95,266.60 190.52,266.92 194.76,267.20C199.50,267.50 199.50,267.50 203.00,274.57C204.93,278.46 206.88,282.19 207.34,282.87C207.96,283.78 208.52,283.81 209.53,282.97C210.28,282.36 212.08,278.25 213.55,273.86C215.01,269.47 217.20,264.72 218.41,263.31C219.96,261.51 221.20,260.94 222.56,261.39C223.63,261.74 226.07,264.26 228.00,266.98C229.93,269.71 232.10,272.18 232.84,272.47C233.58,272.77 234.57,272.76 235.05,272.47C235.53,272.17 236.22,270.37 236.57,268.45C236.93,266.54 237.65,264.72 238.16,264.40C238.67,264.09 241.72,266.68 244.94,270.16C250.79,276.50 250.79,276.50 250.78,289.00C250.77,295.88 251.29,304.43 251.92,308.00C252.56,311.57 253.34,315.18 253.65,316.00C254.10,317.20 254.38,317.10 255.04,315.50C255.49,314.40 255.90,308.55 255.95,302.50C256.01,296.45 256.46,289.70 256.97,287.50C257.48,285.30 258.94,282.66 260.20,281.62C262.24,279.96 263.71,279.81 273.25,280.30C281.84,280.75 284.00,280.59 284.00,279.52C284.00,278.79 281.64,276.05 278.75,273.45C275.86,270.84 272.05,268.10 270.28,267.36C268.51,266.61 265.47,266.00 263.53,266.00C261.37,266.00 260.00,265.52 260.01,264.75C260.01,264.06 262.28,261.31 265.06,258.63C267.83,255.95 269.97,253.11 269.80,252.30C269.64,251.50 266.17,249.55 262.10,247.97C258.03,246.39 252.91,243.65 250.72,241.90C246.74,238.70 246.74,238.70 241.96,240.42C237.53,242.01 236.94,242.02 234.05,240.52C232.33,239.64 230.20,237.40 229.32,235.55C228.44,233.70 227.97,231.52 228.28,230.72C228.59,229.91 230.56,228.94 232.67,228.57C234.78,228.19 238.22,227.43 240.32,226.88C243.26,226.11 243.90,225.59 243.09,224.60C242.50,223.90 239.66,222.83 236.76,222.23C233.87,221.63 229.70,220.85 227.50,220.48C225.30,220.12 222.94,219.36 222.25,218.79C221.56,218.22 221.00,215.90 221.01,213.63C221.02,211.36 222.07,207.25 223.35,204.50C224.63,201.75 226.39,198.92 227.24,198.21C228.54,197.14 229.73,197.25 234.15,198.87C237.09,199.95 240.95,201.41 242.71,202.12C244.48,202.83 246.20,203.13 246.54,202.79C246.88,202.45 246.62,201.12 245.96,199.84C245.29,198.55 243.86,196.52 242.77,195.32C241.68,194.13 241.11,192.63 241.50,192.00C241.89,191.37 245.31,188.86 249.10,186.43C252.90,184.00 256.00,181.63 256.00,181.16C256.00,180.70 254.14,179.76 251.88,179.08C248.71,178.13 248.03,177.57 248.94,176.67C249.76,175.86 254.90,175.55 265.56,175.66C275.11,175.76 281.00,175.44 281.00,174.83C281.00,174.29 278.52,171.26 275.50,168.09C272.48,164.91 270.00,162.02 270.00,161.66C270.00,161.30 271.69,161.00 273.75,161.00C275.81,161.01 278.85,161.83 280.50,162.84C282.15,163.85 286.11,167.07 289.30,169.98C292.49,172.90 295.81,176.66 296.67,178.33C297.84,180.59 298.09,182.94 297.65,187.44C297.32,190.77 296.75,194.81 296.38,196.40C295.79,198.93 295.95,199.24 297.60,198.74C298.65,198.42 303.26,196.50 307.85,194.47C312.45,192.44 317.62,190.71 319.34,190.64C322.28,190.51 322.54,190.79 323.70,195.43C324.38,198.14 325.52,200.95 326.23,201.66C326.95,202.38 329.89,203.41 332.77,203.96C335.65,204.50 339.30,204.69 340.89,204.37C343.72,203.81 343.79,203.90 344.21,208.65C344.45,211.32 344.51,213.68 344.33,213.91C344.16,214.13 340.84,213.24 336.97,211.92C330.83,209.83 329.79,209.71 328.95,211.01C328.41,211.83 328.24,213.40 328.57,214.50C328.89,215.60 329.40,217.51 329.70,218.75C330.17,220.72 329.38,221.39 323.37,224.15C319.59,225.89 313.49,229.28 309.81,231.69C306.13,234.10 301.12,238.30 298.67,241.02C296.21,243.75 293.10,248.79 291.70,252.28C290.31,255.76 288.61,262.40 287.93,267.05C287.05,273.07 286.89,282.41 287.37,299.50C287.75,312.70 288.67,328.00 289.41,333.50C290.16,339.00 290.43,343.87 290.01,344.32C289.60,344.77 286.61,342.18 283.38,338.55C280.15,334.92 276.54,330.20 275.38,328.06C274.21,325.92 272.76,322.74 272.15,321.01C271.55,319.27 270.64,318.10 270.14,318.41C269.64,318.72 267.77,322.62 265.97,327.08C262.78,334.99 262.63,335.18 259.78,334.61C258.04,334.26 254.47,334.83 250.93,336.02C247.66,337.12 242.85,339.34 240.25,340.96C237.64,342.57 232.57,347.40 229.00,351.69C225.43,355.98 216.88,365.29 210.00,372.37C203.12,379.46 192.94,389.02 187.37,393.61C181.80,398.21 172.98,404.81 167.78,408.29C162.59,411.76 154.68,416.51 150.21,418.83C145.74,421.16 139.03,424.21 135.29,425.62C131.56,427.03 124.67,429.06 120.00,430.14C114.27,431.45 106.62,432.21 96.50,432.46zM643.00,429.57C654.02,429.44 656.07,429.13 660.26,427.03C662.88,425.71 665.80,423.75 666.76,422.67C668.49,420.72 668.18,420.71 626.25,421.30C603.02,421.63 583.26,422.32 582.34,422.83C581.07,423.54 582.38,424.15 587.88,425.40C591.84,426.31 599.68,427.48 605.29,428.02C610.91,428.56 618.88,429.16 623.00,429.36C627.12,429.55 636.12,429.65 643.00,429.57zM596.00,414.42C601.77,414.18 612.12,412.91 619.00,411.58C625.88,410.26 640.65,408.42 651.84,407.50C663.03,406.57 677.43,404.75 683.84,403.45C692.18,401.76 697.64,399.98 703.00,397.21C707.12,395.08 717.92,389.53 727.00,384.88C736.08,380.23 747.55,375.11 752.50,373.51C761.50,370.60 761.50,370.60 757.50,369.91C755.30,369.53 713.90,369.31 665.50,369.44C584.66,369.65 575.55,369.84 553.50,371.82C540.30,373.00 517.35,374.44 502.50,375.01C487.65,375.59 450.52,376.35 420.00,376.70C364.88,377.34 364.54,377.36 370.40,379.11C373.64,380.09 381.52,381.81 387.90,382.93C394.28,384.06 405.35,385.65 412.50,386.48C419.65,387.30 434.73,388.66 446.00,389.50C457.27,390.34 470.49,391.54 475.37,392.16C482.60,393.08 483.89,393.49 482.37,394.40C481.17,395.10 469.84,395.68 451.00,396.00C434.77,396.27 422.40,396.82 423.50,397.21C424.60,397.61 429.32,398.38 434.00,398.92C438.68,399.47 451.73,400.50 463.00,401.21C474.27,401.92 493.62,402.46 506.00,402.40C523.72,402.33 529.88,401.94 535.00,400.60C539.29,399.48 546.77,398.77 557.00,398.52C565.52,398.30 577.67,397.39 584.00,396.50C590.33,395.60 603.38,393.14 613.00,391.03C622.62,388.92 635.05,386.48 640.62,385.60C646.18,384.72 652.15,384.00 653.87,384.00C655.59,384.00 656.99,384.34 656.98,384.75C656.98,385.16 656.64,385.99 656.23,386.59C655.83,387.18 652.83,389.37 649.56,391.44C646.30,393.52 640.11,396.99 635.81,399.16C631.33,401.42 624.90,403.68 620.75,404.47C616.76,405.22 604.05,406.34 592.50,406.96C580.95,407.58 568.69,408.33 565.25,408.62C561.81,408.92 559.00,409.58 559.00,410.10C559.00,410.62 560.14,411.48 561.53,412.01C562.93,412.54 568.89,413.40 574.78,413.92C580.68,414.43 590.23,414.66 596.00,414.42zM467.30,413.85C474.37,413.96 477.92,413.58 480.05,412.47C481.67,411.64 483.00,410.57 483.00,410.11C483.00,409.65 480.64,408.99 477.75,408.65C474.86,408.30 463.30,408.01 452.05,408.01C439.01,408.00 431.95,408.35 432.56,408.96C433.09,409.49 437.56,410.59 442.51,411.42C447.45,412.24 452.85,413.09 454.50,413.31C456.15,413.52 461.91,413.77 467.30,413.85zM510.50,393.85C497.13,393.86 489.93,393.45 486.20,392.44C483.28,391.66 480.01,390.54 478.92,389.96C477.83,389.38 477.21,388.47 477.53,387.95C477.85,387.43 483.60,387.00 490.31,387.00C497.01,387.01 506.73,387.69 511.90,388.53C517.08,389.37 523.15,390.91 525.40,391.94C529.50,393.83 529.50,393.83 510.50,393.85zM336.73,384.31C336.91,383.78 335.07,378.20 332.65,371.92C330.23,365.64 326.66,355.55 324.72,349.50C322.78,343.45 320.38,334.00 319.39,328.50C318.05,321.02 317.58,313.21 317.55,297.50C317.52,280.70 317.86,275.20 319.24,270.00C320.19,266.43 323.51,258.49 326.62,252.37C329.73,246.25 331.98,240.77 331.62,240.20C331.20,239.51 329.90,239.46 327.85,240.04C326.13,240.54 323.84,241.74 322.76,242.72C321.67,243.70 319.99,246.07 319.01,248.00C318.03,249.93 316.26,254.62 315.09,258.44C313.91,262.26 312.29,269.46 311.48,274.44C310.67,279.42 310.01,289.82 310.00,297.54C310.00,305.26 310.66,316.91 311.47,323.43C312.28,329.95 313.89,339.15 315.04,343.89C316.20,348.63 319.33,357.00 322.00,362.50C324.66,368.00 328.99,375.38 331.62,378.89C334.25,382.41 336.55,384.84 336.73,384.31zM135.95,356.75C135.09,356.93 131.49,354.88 127.95,352.20C124.40,349.52 120.46,346.77 119.19,346.10C117.25,345.06 116.34,345.19 113.39,346.93C111.46,348.07 109.64,349.00 109.33,349.00C109.03,349.00 109.00,347.54 109.27,345.75C109.55,343.96 110.96,339.57 112.42,336.00C113.88,332.43 115.43,328.85 115.86,328.06C116.29,327.27 117.13,326.46 117.73,326.26C118.33,326.06 122.04,330.23 125.97,335.53C129.90,340.83 133.96,346.81 134.99,348.83C136.02,350.85 137.01,353.38 137.18,354.46C137.37,355.62 136.86,356.56 135.95,356.75zM104.35,343.05C103.69,343.71 102.82,343.46 101.74,342.27C100.86,341.29 98.54,337.12 96.58,333.00C94.63,328.87 92.75,324.04 92.39,322.25C91.87,319.61 92.07,319.00 93.44,319.00C94.37,319.00 96.00,319.47 97.06,320.03C98.12,320.60 99.87,322.79 100.95,324.89C102.02,327.00 103.45,331.72 104.13,335.38C104.95,339.83 105.02,342.38 104.35,343.05zM408.84,329.59C405.35,329.80 402.05,329.79 401.50,329.57C400.95,329.35 399.26,328.90 397.75,328.57C396.24,328.23 395.00,327.50 395.00,326.93C395.00,326.36 396.67,325.20 398.72,324.34C401.13,323.34 404.30,322.94 407.70,323.23C410.91,323.49 413.77,324.38 415.01,325.51C416.27,326.65 416.69,327.71 416.12,328.28C415.60,328.80 412.33,329.38 408.84,329.59zM448.66,306.84C446.92,306.75 444.06,306.50 442.30,306.28C440.22,306.02 438.88,305.19 438.47,303.92C438.13,302.84 438.13,300.67 438.48,299.10C438.87,297.34 442.16,293.27 447.10,288.47C453.15,282.57 455.37,280.97 456.25,281.85C456.88,282.48 457.59,285.92 457.82,289.48C458.04,293.04 457.95,297.05 457.62,298.40C457.28,299.74 455.84,302.23 454.41,303.92C452.43,306.27 451.07,306.96 448.66,306.84zM444.79,304.00C445.77,304.00 448.03,302.76 449.81,301.25C451.59,299.74 453.44,297.10 453.92,295.38C454.39,293.67 454.44,291.71 454.02,291.03C453.45,290.12 452.73,290.07 451.26,290.86C450.17,291.44 447.86,293.53 446.14,295.50C444.41,297.46 443.00,300.18 443.00,301.53C443.00,303.24 443.55,304.00 444.79,304.00zM490.97,294.00C490.48,294.00 489.16,293.02 488.04,291.81C486.83,290.51 486.00,288.26 486.00,286.27C486.00,284.43 486.87,281.22 487.93,279.14C488.99,277.07 490.53,274.80 491.36,274.12C492.59,273.09 493.05,273.23 493.93,274.87C494.52,275.97 495.00,278.29 495.00,280.03C495.00,281.77 494.29,285.62 493.43,288.60C492.57,291.57 491.46,294.00 490.97,294.00zM330.82,179.99C330.09,179.99 328.15,179.29 326.51,178.43C324.86,177.57 322.08,175.77 320.32,174.43C318.57,173.09 316.24,172.00 315.14,172.00C314.04,172.00 312.44,172.71 311.57,173.57C310.14,175.00 310.00,174.95 310.00,173.02C310.00,171.86 310.69,169.57 311.53,167.95C312.36,166.33 313.83,165.02 314.78,165.04C315.72,165.06 319.88,167.43 324.00,170.31C328.94,173.75 331.61,176.29 331.82,177.76C332.01,179.11 331.62,180.00 330.82,179.99zM332.98,168.00C331.72,168.00 330.58,167.02 329.98,165.43C329.44,164.02 329.00,162.45 329.00,161.93C329.00,161.42 329.24,161.00 329.54,161.00C329.83,161.00 331.18,161.73 332.54,162.62C333.89,163.50 335.00,165.08 335.00,166.12C335.00,167.34 334.29,168.00 332.98,168.00z" />

</svg>
